<?xml version="1.0" encoding="iso-8859-1"?>
<!-- Generator: Adobe Illustrator 19.0.0, SVG Export Plug-In . SVG Version: 6.00 Build 0)  -->
<svg version="1.1" id="Capa_1" xmlns="http://www.w3.org/2000/svg" xmlns:xlink="http://www.w3.org/1999/xlink" x="0px" y="0px"
	 viewBox="0 0 512 512" style="enable-background:new 0 0 512 512;" xml:space="preserve">
<g>
	<rect x="430.63" y="282.598" style="fill:#242424;" width="81.37" height="30"/>
	
		<rect x="393.25" y="104.65" transform="matrix(-0.7071 -0.7071 0.7071 -0.7071 594.1592 536.7786)" style="fill:#242424;" width="30" height="81.369"/>
	
		<rect x="367.564" y="434.844" transform="matrix(-0.7071 -0.7071 0.7071 -0.7071 378.8355 1056.6067)" style="fill:#242424;" width="81.369" height="30"/>
</g>
<g>
	<rect y="282.598" style="fill:#404040;" width="81.37" height="30"/>
	
		<rect x="88.749" y="409.167" transform="matrix(-0.7071 -0.7071 0.7071 -0.7071 -140.9825 841.3071)" style="fill:#404040;" width="30" height="81.369"/>
	
		<rect x="63.056" y="130.343" transform="matrix(-0.7071 -0.7071 0.7071 -0.7071 74.3242 321.472)" style="fill:#404040;" width="81.369" height="30"/>
</g>
<path style="fill:#FF0019;" d="M367.735,145.65l-131.751,52.346L256,490.95c105.333,0,190.722-85.389,190.722-190.721
	C446.722,236.629,415.59,180.302,367.735,145.65z"/>
<path style="fill:#FF5919;" d="M144.265,145.65c-47.855,34.651-78.987,90.979-78.987,154.579
	c0,105.333,85.389,190.721,190.722,190.721V197.996L144.265,145.65z"/>
<rect x="183.794" y="37.461" transform="matrix(-0.7071 -0.7071 0.7071 -0.7071 326.8865 240.3234)" style="fill:#404040;" width="58.844" height="30"/>
<g>
	
		<rect x="283.771" y="23.039" transform="matrix(-0.7071 -0.7071 0.7071 -0.7071 472.9383 300.8204)" style="fill:#242424;" width="30" height="58.844"/>
	<path style="fill:#242424;" d="M293.764,113.246H256l-20.016,57.225L256,218.012c49.773,0,92.606-29.709,111.735-72.362
		C346.062,129.957,320.959,118.708,293.764,113.246z"/>
</g>
<g>
	<path style="fill:#404040;" d="M218.232,113.247c-27.194,5.463-52.295,16.711-73.966,32.404
		c19.128,42.653,61.962,72.362,111.735,72.362V113.246L218.232,113.247z"/>
	<path style="fill:#404040;" d="M256,47.139l-20.016,48.479L256,144.096c26.774,0,48.479-21.705,48.479-48.479
		S282.774,47.139,256,47.139z"/>
</g>
<path style="fill:#606060;" d="M207.521,95.617c0,26.774,21.705,48.479,48.479,48.479V47.139
	C229.226,47.139,207.521,68.843,207.521,95.617z"/>
<g>
</g>
<g>
</g>
<g>
</g>
<g>
</g>
<g>
</g>
<g>
</g>
<g>
</g>
<g>
</g>
<g>
</g>
<g>
</g>
<g>
</g>
<g>
</g>
<g>
</g>
<g>
</g>
<g>
</g>
</svg>
